<svg width="14" height="14" viewBox="0 0 14 14" fill="none" xmlns="http://www.w3.org/2000/svg">
<path d="M7.33906 3.29265C5.47545 3.29265 3.97142 4.79667 3.97142 6.66028C3.97142 8.5239 5.47545 10.0279 7.33906 10.0279C9.20267 10.0279 10.7067 8.5239 10.7067 6.66028C10.7067 4.79667 9.20267 3.29265 7.33906 3.29265ZM7.33906 8.849C6.13387 8.849 5.15034 7.86547 5.15034 6.66028C5.15034 5.45509 6.13387 4.47157 7.33906 4.47157C8.54425 4.47157 9.52778 5.45509 9.52778 6.66028C9.52778 7.86547 8.54425 8.849 7.33906 8.849ZM10.8446 2.36987C10.4095 2.36987 10.0581 2.72125 10.0581 3.15636C10.0581 3.59148 10.4095 3.94286 10.8446 3.94286C11.2797 3.94286 11.6311 3.59312 11.6311 3.15636C11.6312 3.05304 11.611 2.95071 11.5715 2.85523C11.532 2.75975 11.4741 2.673 11.401 2.59994C11.328 2.52688 11.2412 2.46895 11.1458 2.42947C11.0503 2.39 10.9479 2.36974 10.8446 2.36987V2.36987ZM13.9036 6.66028C13.9036 5.75393 13.9118 4.85578 13.8609 3.95107C13.81 2.90022 13.5703 1.96759 12.8018 1.19916C12.0318 0.429086 11.1008 0.191003 10.0499 0.140103C9.14356 0.0892024 8.24542 0.0974122 7.3407 0.0974122C6.43435 0.0974122 5.5362 0.0892024 4.63149 0.140103C3.58064 0.191003 2.64801 0.430728 1.87958 1.19916C1.10951 1.96923 0.871423 2.90022 0.820523 3.95107C0.769622 4.85742 0.777832 5.75557 0.777832 6.66028C0.777832 7.565 0.769622 8.46479 0.820523 9.3695C0.871423 10.4203 1.11115 11.353 1.87958 12.1214C2.64965 12.8915 3.58064 13.1296 4.63149 13.1805C5.53784 13.2314 6.43599 13.2232 7.3407 13.2232C8.24706 13.2232 9.14521 13.2314 10.0499 13.1805C11.1008 13.1296 12.0334 12.8898 12.8018 12.1214C13.5719 11.3513 13.81 10.4203 13.8609 9.3695C13.9134 8.46479 13.9036 7.56664 13.9036 6.66028V6.66028ZM12.4587 10.532C12.3388 10.8308 12.1943 11.0541 11.9628 11.284C11.7313 11.5155 11.5096 11.66 11.2108 11.7799C10.3471 12.123 8.29632 12.0459 7.33906 12.0459C6.38181 12.0459 4.32937 12.123 3.4657 11.7815C3.16687 11.6617 2.94356 11.5172 2.71369 11.2857C2.48218 11.0541 2.33768 10.8325 2.21782 10.5336C1.8763 9.66833 1.95347 7.61754 1.95347 6.66028C1.95347 5.70303 1.8763 3.65059 2.21782 2.78693C2.33768 2.48809 2.48218 2.26479 2.71369 2.03491C2.94521 1.80504 3.16687 1.65891 3.4657 1.53904C4.32937 1.19752 6.38181 1.27469 7.33906 1.27469C8.29632 1.27469 10.3488 1.19752 11.2124 1.53904C11.5113 1.65891 11.7346 1.8034 11.9644 2.03491C12.1959 2.26643 12.3404 2.48809 12.4603 2.78693C12.8018 3.65059 12.7247 5.70303 12.7247 6.66028C12.7247 7.61754 12.8018 9.66833 12.4587 10.532Z" fill="white"/>
</svg>
