<svg width="140" height="70" viewBox="0 0 140 70" fill="none" xmlns="http://www.w3.org/2000/svg">
<rect width="140" height="70" fill="white"/>
<line x1="61.5" y1="23" x2="61.5" y2="47" stroke="#C1C1C1" stroke-dasharray="2 2"/>
<path d="M92.0272 22.2V32H93.2172V22.2H92.0272ZM92.6852 23.32H94.6872C95.3219 23.32 95.8352 23.474 96.2272 23.782C96.6286 24.0807 96.8292 24.5333 96.8292 25.14C96.8292 25.7373 96.6286 26.19 96.2272 26.498C95.8352 26.806 95.3219 26.96 94.6872 26.96H92.6852V28.08H94.6872C95.3219 28.08 95.8866 27.9633 96.3812 27.73C96.8852 27.4873 97.2819 27.1467 97.5712 26.708C97.8699 26.26 98.0192 25.7373 98.0192 25.14C98.0192 24.5333 97.8699 24.0107 97.5712 23.572C97.2819 23.1333 96.8852 22.7973 96.3812 22.564C95.8866 22.3213 95.3219 22.2 94.6872 22.2H92.6852V23.32ZM99.6971 22.2V32H100.887V22.2H99.6971ZM102.637 32C103.589 32 104.434 31.7947 105.171 31.384C105.908 30.9733 106.487 30.404 106.907 29.676C107.327 28.9387 107.537 28.08 107.537 27.1C107.537 26.12 107.327 25.266 106.907 24.538C106.487 23.8007 105.908 23.2267 105.171 22.816C104.434 22.4053 103.589 22.2 102.637 22.2H100.355V23.39H102.637C103.188 23.39 103.692 23.4787 104.149 23.656C104.606 23.824 104.998 24.0713 105.325 24.398C105.652 24.7153 105.904 25.1027 106.081 25.56C106.258 26.0173 106.347 26.5307 106.347 27.1C106.347 27.6693 106.258 28.1827 106.081 28.64C105.904 29.0973 105.652 29.4893 105.325 29.816C104.998 30.1333 104.606 30.3807 104.149 30.558C103.692 30.726 103.188 30.81 102.637 30.81H100.355V32H102.637ZM109.871 23.32H114.253V22.2H109.871V23.32ZM109.871 27.24H114.113V26.12H109.871V27.24ZM109.213 22.2V32H110.403V22.2H109.213ZM78.4389 42.82H80.0209C80.6089 42.82 81.1175 42.736 81.5469 42.568C81.9855 42.4 82.3262 42.1527 82.5689 41.826C82.8115 41.4993 82.9329 41.1073 82.9329 40.65C82.9329 40.09 82.8115 39.6327 82.5689 39.278C82.3262 38.914 81.9855 38.6433 81.5469 38.466C81.1175 38.2887 80.6089 38.2 80.0209 38.2H77.5009V48H80.1609C80.7955 48 81.3602 47.8973 81.8549 47.692C82.3589 47.4773 82.7555 47.16 83.0449 46.74C83.3435 46.3107 83.4929 45.774 83.4929 45.13C83.4929 44.682 83.4089 44.2947 83.2409 43.968C83.0729 43.6413 82.8349 43.3753 82.5269 43.17C82.2282 42.9553 81.8782 42.7967 81.4769 42.694C81.0755 42.5913 80.6369 42.54 80.1609 42.54H78.4389V43.198H80.1609C80.4782 43.198 80.7675 43.24 81.0289 43.324C81.2902 43.3987 81.5142 43.5153 81.7009 43.674C81.8969 43.8327 82.0462 44.0287 82.1489 44.262C82.2515 44.4953 82.3029 44.7613 82.3029 45.06C82.3029 45.4613 82.2095 45.802 82.0229 46.082C81.8455 46.362 81.5935 46.5767 81.2669 46.726C80.9495 46.8753 80.5809 46.95 80.1609 46.95H78.6909V39.25H80.0209C80.5155 39.25 80.9262 39.3807 81.2529 39.642C81.5795 39.894 81.7429 40.2533 81.7429 40.72C81.7429 41.028 81.6682 41.2893 81.5189 41.504C81.3695 41.7187 81.1642 41.882 80.9029 41.994C80.6415 42.106 80.3475 42.162 80.0209 42.162H78.4389V42.82ZM86.3575 41.56H85.2375V48H86.3575V41.56ZM88.3035 42.792L88.9195 41.868C88.7515 41.6907 88.5648 41.574 88.3595 41.518C88.1635 41.4527 87.9488 41.42 87.7155 41.42C87.4168 41.42 87.1228 41.5367 86.8335 41.77C86.5442 42.0033 86.3062 42.3207 86.1195 42.722C85.9422 43.114 85.8535 43.5667 85.8535 44.08H86.3575C86.3575 43.772 86.3855 43.4967 86.4415 43.254C86.5068 43.0113 86.6188 42.82 86.7775 42.68C86.9362 42.54 87.1555 42.47 87.4355 42.47C87.6222 42.47 87.7762 42.498 87.8975 42.554C88.0188 42.6007 88.1542 42.68 88.3035 42.792ZM89.2713 44.78C89.2713 45.424 89.4159 46.0027 89.7052 46.516C90.0039 47.02 90.4053 47.4167 90.9093 47.706C91.4133 47.9953 91.9779 48.14 92.6033 48.14C93.2379 48.14 93.8026 47.9953 94.2973 47.706C94.8013 47.4167 95.1979 47.02 95.4873 46.516C95.7859 46.0027 95.9353 45.424 95.9353 44.78C95.9353 44.1267 95.7859 43.548 95.4873 43.044C95.1979 42.54 94.8013 42.1433 94.2973 41.854C93.8026 41.5647 93.2379 41.42 92.6033 41.42C91.9779 41.42 91.4133 41.5647 90.9093 41.854C90.4053 42.1433 90.0039 42.54 89.7052 43.044C89.4159 43.548 89.2713 44.1267 89.2713 44.78ZM90.4053 44.78C90.4053 44.332 90.4986 43.9353 90.6853 43.59C90.8813 43.2353 91.1426 42.96 91.4693 42.764C91.8053 42.568 92.1833 42.47 92.6033 42.47C93.0233 42.47 93.3966 42.568 93.7233 42.764C94.0593 42.96 94.3206 43.2353 94.5073 43.59C94.7033 43.9353 94.8013 44.332 94.8013 44.78C94.8013 45.228 94.7033 45.6247 94.5073 45.97C94.3206 46.3153 94.0593 46.5907 93.7233 46.796C93.3966 46.992 93.0233 47.09 92.6033 47.09C92.1833 47.09 91.8053 46.992 91.4693 46.796C91.1426 46.5907 90.8813 46.3153 90.6853 45.97C90.4986 45.6247 90.4053 45.228 90.4053 44.78ZM97.9778 44.78C97.9778 44.332 98.0712 43.9353 98.2578 43.59C98.4538 43.2353 98.7152 42.96 99.0418 42.764C99.3778 42.568 99.7558 42.47 100.176 42.47C100.521 42.47 100.843 42.526 101.142 42.638C101.45 42.7407 101.716 42.8807 101.94 43.058C102.164 43.2353 102.322 43.4313 102.416 43.646V42.246C102.192 41.9847 101.87 41.784 101.45 41.644C101.039 41.4947 100.614 41.42 100.176 41.42C99.5505 41.42 98.9858 41.5647 98.4818 41.854C97.9778 42.1433 97.5765 42.54 97.2778 43.044C96.9885 43.548 96.8438 44.1267 96.8438 44.78C96.8438 45.424 96.9885 46.0027 97.2778 46.516C97.5765 47.02 97.9778 47.4167 98.4818 47.706C98.9858 47.9953 99.5505 48.14 100.176 48.14C100.614 48.14 101.039 48.07 101.45 47.93C101.87 47.7807 102.192 47.5753 102.416 47.314V45.914C102.322 46.1193 102.164 46.3153 101.94 46.502C101.716 46.6793 101.45 46.824 101.142 46.936C100.843 47.0387 100.521 47.09 100.176 47.09C99.7558 47.09 99.3778 46.992 99.0418 46.796C98.7152 46.5907 98.4538 46.3153 98.2578 45.97C98.0712 45.6247 97.9778 45.228 97.9778 44.78ZM105.279 37.08H104.159V48H105.279V37.08ZM108.289 44.08V48H109.409V43.94C109.409 43.38 109.316 42.9133 109.129 42.54C108.952 42.1667 108.695 41.8867 108.359 41.7C108.033 41.5133 107.645 41.42 107.197 41.42C106.749 41.42 106.353 41.5367 106.007 41.77C105.671 42.0033 105.405 42.3207 105.209 42.722C105.013 43.114 104.915 43.5667 104.915 44.08H105.279C105.279 43.772 105.345 43.4967 105.475 43.254C105.615 43.0113 105.807 42.82 106.049 42.68C106.301 42.54 106.591 42.47 106.917 42.47C107.375 42.47 107.715 42.6053 107.939 42.876C108.173 43.1467 108.289 43.548 108.289 44.08ZM112.635 45.48V41.56H111.515V45.62C111.515 46.3853 111.716 46.9967 112.117 47.454C112.518 47.9113 113.055 48.14 113.727 48.14C114.156 48.14 114.53 48.0467 114.847 47.86C115.164 47.664 115.43 47.3747 115.645 46.992V48H116.765V41.56H115.645V45.48C115.645 45.7973 115.575 46.0773 115.435 46.32C115.304 46.5627 115.113 46.754 114.861 46.894C114.618 47.0247 114.334 47.09 114.007 47.09C113.559 47.09 113.218 46.95 112.985 46.67C112.752 46.39 112.635 45.9933 112.635 45.48ZM119.99 41.56H118.87V48H119.99V41.56ZM121.936 42.792L122.552 41.868C122.384 41.6907 122.198 41.574 121.992 41.518C121.796 41.4527 121.582 41.42 121.348 41.42C121.05 41.42 120.756 41.5367 120.466 41.77C120.177 42.0033 119.939 42.3207 119.752 42.722C119.575 43.114 119.486 43.5667 119.486 44.08H119.99C119.99 43.772 120.018 43.4967 120.074 43.254C120.14 43.0113 120.252 42.82 120.41 42.68C120.569 42.54 120.788 42.47 121.068 42.47C121.255 42.47 121.409 42.498 121.53 42.554C121.652 42.6007 121.787 42.68 121.936 42.792ZM125.956 48.14C126.647 48.14 127.244 48.0047 127.748 47.734C128.261 47.454 128.686 47.0433 129.022 46.502L128.112 45.928C127.879 46.32 127.594 46.614 127.258 46.81C126.922 46.9967 126.535 47.09 126.096 47.09C125.657 47.09 125.284 46.9967 124.976 46.81C124.668 46.6233 124.435 46.3527 124.276 45.998C124.117 45.6433 124.038 45.214 124.038 44.71C124.047 44.2153 124.131 43.8 124.29 43.464C124.458 43.1187 124.691 42.8573 124.99 42.68C125.298 42.4933 125.667 42.4 126.096 42.4C126.46 42.4 126.777 42.4793 127.048 42.638C127.319 42.7967 127.529 43.016 127.678 43.296C127.837 43.576 127.916 43.9073 127.916 44.29C127.916 44.3553 127.902 44.4393 127.874 44.542C127.846 44.6353 127.818 44.7053 127.79 44.752L128.238 44.108H123.618V45.06H129.12C129.12 45.0413 129.12 44.9993 129.12 44.934C129.129 44.8593 129.134 44.7893 129.134 44.724C129.134 44.0427 129.013 43.4547 128.77 42.96C128.527 42.4653 128.177 42.0873 127.72 41.826C127.272 41.5553 126.731 41.42 126.096 41.42C125.461 41.42 124.901 41.56 124.416 41.84C123.94 42.12 123.567 42.512 123.296 43.016C123.035 43.52 122.904 44.108 122.904 44.78C122.904 45.4427 123.03 46.026 123.282 46.53C123.543 47.034 123.903 47.4307 124.36 47.72C124.827 48 125.359 48.14 125.956 48.14Z" fill="#232323"/>
<g clip-path="url(#clip0_3349_861)">
<path d="M14.4997 40.714H13.2137C12.3603 40.714 11.5419 40.375 10.9385 39.7716C10.3351 39.1681 9.99609 38.3497 9.99609 37.4964C9.99596 37.2432 10.0457 36.9924 10.1425 36.7584C10.2393 36.5245 10.3813 36.3119 10.5603 36.1328C10.7393 35.9537 10.9518 35.8116 11.1857 35.7147C11.4196 35.6178 11.6704 35.5679 11.9236 35.5679H14.4956V40.7109L14.4997 40.714Z" fill="#BD4150"/>
<path d="M38.9303 15H15.1427L14.4805 16.285V54.2342H44.7137L45.9997 53.571V22.0715L38.9303 15Z" fill="#ECEAEC"/>
<path d="M15.1424 51.6424V15.0031C14.8016 15.0031 14.4748 15.1384 14.2338 15.3794C13.9928 15.6204 13.8574 15.9472 13.8574 16.288V53.574C13.8574 53.9149 13.9928 54.2419 14.2337 54.483C14.4747 54.7242 14.8015 54.8598 15.1424 54.86H44.7134C44.8823 54.86 45.0495 54.8268 45.2055 54.7622C45.3615 54.6975 45.5033 54.6028 45.6227 54.4834C45.7421 54.364 45.8369 54.2222 45.9015 54.0662C45.9661 53.9101 45.9994 53.7429 45.9994 53.574H17.0709C16.5594 53.574 16.0689 53.3709 15.7072 53.0092C15.3456 52.6475 15.1424 52.157 15.1424 51.6455V51.6424Z" fill="#DAD8DB"/>
<path d="M45.9991 21.9604C45.9992 21.7916 45.9659 21.6243 45.9012 21.4683C45.8366 21.3123 45.7418 21.1706 45.6223 21.0512L39.9469 15.3809C39.8278 15.2614 39.6862 15.1666 39.5304 15.1019C39.3745 15.0373 39.2074 15.004 39.0387 15.0042H38.9297V21.4321C38.93 21.6027 38.9978 21.7662 39.1185 21.8869C39.2391 22.0075 39.4026 22.0754 39.5732 22.0757H46.0012L45.9991 21.9604Z" fill="#DAD8DB"/>
<path d="M31.8559 39.428H11.9274C11.7085 39.4284 11.4912 39.3912 11.2849 39.318L10.6621 40.3559V48.4778C10.6621 48.7312 10.712 48.982 10.809 49.2161C10.906 49.4501 11.0481 49.6628 11.2273 49.8419C11.4065 50.021 11.6192 50.163 11.8533 50.2598C12.0874 50.3567 12.3383 50.4065 12.5917 50.4063H31.8528L33.1388 49.7182V40.714C33.1388 40.373 33.0033 40.0459 32.7621 39.8047C32.5209 39.5635 32.1938 39.428 31.8528 39.428H31.8559Z" fill="#E15F78"/>
<path d="M11.285 39.318C10.9094 39.1844 10.5843 38.9379 10.3543 38.6124C10.1242 38.2869 10.0005 37.8981 10 37.4995V49.0705C9.99986 49.3238 10.0496 49.5746 10.1464 49.8086C10.2432 50.0426 10.3851 50.2553 10.5641 50.4345C10.7431 50.6136 10.9556 50.7558 11.1895 50.8528C11.4235 50.9499 11.6742 50.9999 11.9275 51H31.856C32.197 51 32.5241 50.8645 32.7653 50.6234C33.0065 50.3822 33.142 50.0551 33.142 49.714H13.2135C12.702 49.714 12.2115 49.5108 11.8498 49.1492C11.4882 48.7875 11.285 48.297 11.285 47.7855V39.318Z" fill="#DB4655"/>
<path d="M28.342 44.5223H27.0799V43.3016H28.5071C28.6731 43.295 28.8302 43.2243 28.9453 43.1044C29.0605 42.9846 29.1248 42.8248 29.1248 42.6586C29.1248 42.4924 29.0605 42.3327 28.9453 42.2128C28.8302 42.093 28.6731 42.0223 28.5071 42.0156H26.4374C26.267 42.0156 26.1036 42.0833 25.9831 42.2038C25.8626 42.3243 25.7949 42.4877 25.7949 42.6581V47.7648C25.7949 47.9352 25.8626 48.0986 25.9831 48.2191C26.1036 48.3396 26.267 48.4073 26.4374 48.4073C26.6078 48.4073 26.7712 48.3396 26.8917 48.2191C27.0122 48.0986 27.0799 47.9352 27.0799 47.7648V45.8083H28.342C28.5081 45.8016 28.6651 45.7309 28.7803 45.6111C28.8954 45.4912 28.9597 45.3315 28.9597 45.1653C28.9597 44.9991 28.8954 44.8393 28.7803 44.7195C28.6651 44.5996 28.5081 44.5289 28.342 44.5223Z" fill="white"/>
<path d="M16.5553 42H15.1229C14.9526 42.0003 14.7894 42.0681 14.669 42.1885C14.5485 42.3089 14.4807 42.4722 14.4805 42.6425V47.7855C14.4805 47.9559 14.5482 48.1193 14.6686 48.2398C14.7891 48.3603 14.9526 48.428 15.1229 48.428C15.2933 48.428 15.4568 48.3603 15.5773 48.2398C15.6978 48.1193 15.7655 47.9559 15.7655 47.7855V46.1912H16.5553C16.8342 46.1974 17.1116 46.1478 17.3711 46.0454C17.6306 45.943 17.867 45.7897 18.0664 45.5946C18.2659 45.3996 18.4244 45.1666 18.5326 44.9095C18.6408 44.6523 18.6965 44.3761 18.6965 44.0972C18.6965 43.8182 18.6408 43.542 18.5326 43.2848C18.4244 43.0277 18.2659 42.7948 18.0664 42.5997C17.867 42.4046 17.6306 42.2514 17.3711 42.1489C17.1116 42.0465 16.8342 41.9969 16.5553 42.0031V42ZM16.5553 44.9062H15.7727C15.7727 44.6094 15.7675 43.286 15.7675 43.286H16.5553C16.7698 43.286 16.9754 43.3712 17.127 43.5228C17.2787 43.6745 17.3639 43.8801 17.3639 44.0946C17.3639 44.309 17.2787 44.5147 17.127 44.6663C16.9754 44.8179 16.7698 44.9031 16.5553 44.9031V44.9062Z" fill="white"/>
<path d="M21.9458 42.0758H20.5331C20.4486 42.0757 20.3649 42.0922 20.2868 42.1245C20.2087 42.1568 20.1378 42.2042 20.0781 42.264C20.0184 42.3238 19.9711 42.3948 19.939 42.473C19.9068 42.5511 19.8904 42.6348 19.8906 42.7193V45.2104C19.8906 45.9048 19.8968 47.7139 19.8968 47.7139C19.8979 47.884 19.9662 48.0467 20.0867 48.1666C20.2073 48.2866 20.3703 48.354 20.5404 48.3543C20.5404 48.3543 21.5887 48.3543 21.9935 48.3429C23.5037 48.317 24.5998 47.0008 24.5998 45.2156C24.5998 43.339 23.5307 42.0779 21.9406 42.0779L21.9458 42.0758ZM21.9769 47.0579C21.7921 47.0579 21.4745 47.0631 21.1839 47.0652C21.1839 46.4767 21.1839 45.6349 21.1839 45.2104V43.3629H21.953C23.2598 43.3629 23.3252 44.9063 23.3252 45.2156C23.3252 46.1207 22.91 47.0413 21.9831 47.0579H21.9769Z" fill="white"/>
<path d="M23.4794 36.7469C22.9832 36.7469 22.5349 36.4885 22.2193 36.0017C21.7512 35.2751 21.8747 34.4614 22.5567 33.7566C23.2386 33.0519 24.6533 32.3772 26.3472 31.8312C26.936 30.7118 27.46 29.5596 27.9166 28.3801C28.2134 27.6182 28.4532 26.927 28.6431 26.3166C27.7962 24.7597 27.2938 23.3191 27.4267 22.3808C27.5595 21.4425 28.2747 20.8924 29.3313 20.9505C29.6427 20.9671 30.3942 21.1311 30.5768 22.2842C30.7159 23.1665 30.4834 24.5916 30.0174 26.2108C30.9458 27.7612 32.043 29.2041 33.289 30.513C35.0763 30.4093 36.5907 30.5338 37.3515 30.9936C37.9483 31.3538 38.1819 31.9402 37.9743 32.563C37.6401 33.5802 36.8325 34.0462 35.8143 33.8085C34.9559 33.6082 33.892 32.8588 32.8136 31.8188C30.9291 31.9879 29.0649 32.3354 27.2461 32.8567C26.177 34.7748 25.0218 36.2695 24.0513 36.64C23.8677 36.7122 23.6725 36.7502 23.4753 36.7521L23.4794 36.7469ZM23.2977 35.3032C23.4015 35.4682 23.4649 35.4651 23.4919 35.462C23.9018 35.4194 24.5827 34.7136 25.3601 33.5189C24.8855 33.7174 24.4291 33.9571 23.9963 34.2351C23.0237 34.8807 23.2303 35.1983 23.2967 35.3032H23.2977ZM34.6238 31.7337C35.1729 32.1634 35.6825 32.4602 36.1101 32.5568C36.4433 32.6336 36.6146 32.5952 36.7568 32.1623C36.5668 31.8748 35.7603 31.7368 34.6238 31.7337ZM29.5182 27.7698C29.0883 28.9907 28.5917 30.1872 28.0308 31.3538C29.2447 31.0493 30.4758 30.8181 31.7175 30.6615C30.9173 29.7513 30.1834 28.7849 29.5213 27.7698H29.5182ZM29.2068 22.2095C28.7501 22.2095 28.7272 22.3808 28.7002 22.5614C28.6328 23.0367 28.804 23.7114 29.13 24.4909C29.4206 23.1032 29.3614 22.3694 29.2203 22.2074L29.2068 22.2095Z" fill="#E15F78"/>
</g>
<defs>
<clipPath id="clip0_3349_861">
<rect width="36" height="39.857" fill="white" transform="translate(10 15)"/>
</clipPath>
</defs>
</svg>
