<svg width="26" height="25" viewBox="0 0 26 25" fill="none" xmlns="http://www.w3.org/2000/svg">
<g clip-path="url(#clip0_3288_460)">
<path d="M10.3212 20.8341L10.0705 20.4064C8.18846 17.2003 3.1825 10.3883 3.13205 10.3169L2.98535 10.1174L4.86822 8.25475L10.2576 12.0182C13.636 7.65248 16.7824 4.64502 18.8415 2.88711C21.1155 0.94215 22.5552 0.0713449 22.615 0.0356434L22.6833 -0.00549316H25.9988L25.4369 0.495109C18.3401 6.8166 10.6418 20.2629 10.5641 20.3979L10.3212 20.8341Z" fill="#244D4D"/>
<path d="M0.916402 4.09475C0.916555 4.18554 0.889757 4.27432 0.839415 4.34987C0.789073 4.42542 0.717445 4.48433 0.633599 4.51915C0.549754 4.55396 0.457468 4.56311 0.368419 4.54544C0.27937 4.52776 0.197561 4.48406 0.133366 4.41987C0.0691711 4.35567 0.0254701 4.27387 0.00779633 4.18482C-0.00987744 4.09578 -0.000716591 4.00348 0.0340965 3.91963C0.0689095 3.83579 0.127812 3.76416 0.203361 3.71382C0.27891 3.66348 0.367694 3.63669 0.45848 3.63684C0.579925 3.63684 0.696411 3.68508 0.782286 3.77096C0.868161 3.85683 0.916402 3.97331 0.916402 4.09475Z" fill="#828282"/>
<path d="M2.70392 4.09475C2.70392 4.18532 2.67706 4.27385 2.62674 4.34915C2.57643 4.42446 2.5049 4.48314 2.42123 4.5178C2.33756 4.55246 2.2455 4.56153 2.15667 4.54386C2.06785 4.5262 1.98625 4.48258 1.92221 4.41854C1.85817 4.3545 1.81455 4.27291 1.79689 4.18408C1.77922 4.09526 1.78828 4.00318 1.82294 3.91951C1.8576 3.83584 1.91629 3.76432 1.9916 3.71401C2.0669 3.66369 2.15543 3.63684 2.246 3.63684C2.36744 3.63684 2.48391 3.68508 2.56978 3.77096C2.65566 3.85683 2.70392 3.97331 2.70392 4.09475Z" fill="#828282"/>
<path d="M4.49158 4.09475C4.49174 4.18554 4.46496 4.27432 4.41462 4.34987C4.36427 4.42542 4.29265 4.48433 4.2088 4.51915C4.12495 4.55396 4.03267 4.56311 3.94362 4.54544C3.85457 4.52776 3.77276 4.48406 3.70857 4.41987C3.64437 4.35567 3.60067 4.27387 3.583 4.18482C3.56532 4.09578 3.57446 4.00348 3.60928 3.91963C3.64409 3.83579 3.70301 3.76416 3.77856 3.71382C3.85411 3.66348 3.94289 3.63669 4.03368 3.63684C4.15513 3.63684 4.27159 3.68508 4.35747 3.77096C4.44334 3.85683 4.49158 3.97331 4.49158 4.09475Z" fill="#828282"/>
<path d="M6.27869 4.09475C6.27885 4.18554 6.25207 4.27432 6.20172 4.34987C6.15138 4.42542 6.07975 4.48433 5.99591 4.51915C5.91206 4.55396 5.81976 4.56311 5.73071 4.54544C5.64166 4.52776 5.55987 4.48406 5.49568 4.41987C5.43148 4.35567 5.38778 4.27387 5.37011 4.18482C5.35243 4.09578 5.36157 4.00348 5.39639 3.91963C5.4312 3.83579 5.49012 3.76416 5.56567 3.71382C5.64122 3.66348 5.73 3.63669 5.82079 3.63684C5.94223 3.63684 6.0587 3.68508 6.14458 3.77096C6.23045 3.85683 6.27869 3.97331 6.27869 4.09475Z" fill="#828282"/>
<path d="M8.07011 4.09475C8.07011 4.18532 8.04325 4.27385 7.99293 4.34915C7.94262 4.42446 7.87111 4.48314 7.78744 4.5178C7.70377 4.55246 7.61169 4.56153 7.52287 4.54386C7.43404 4.5262 7.35244 4.48258 7.2884 4.41854C7.22436 4.3545 7.18077 4.27291 7.1631 4.18408C7.14543 4.09526 7.15449 4.00318 7.18915 3.91951C7.22381 3.83584 7.28249 3.76432 7.35779 3.71401C7.43309 3.66369 7.52164 3.63684 7.61221 3.63684C7.73365 3.63684 7.85012 3.68508 7.93599 3.77096C8.02187 3.85683 8.07011 3.97331 8.07011 4.09475Z" fill="#828282"/>
<path d="M9.85488 4.09475C9.85503 4.18551 9.82826 4.27426 9.77795 4.3498C9.72764 4.42533 9.65607 4.48423 9.57227 4.51907C9.48847 4.55391 9.39621 4.5631 9.30718 4.54549C9.21815 4.52788 9.13635 4.48426 9.07213 4.42014C9.0079 4.35602 8.96413 4.27429 8.94637 4.1853C8.92861 4.0963 8.93765 4.00403 8.97235 3.92017C9.00704 3.83631 9.06584 3.76463 9.14129 3.7142C9.21674 3.66376 9.30545 3.63684 9.3962 3.63684C9.51772 3.63684 9.63425 3.68506 9.72025 3.77091C9.80625 3.85676 9.85467 3.97324 9.85488 4.09475Z" fill="#828282"/>
<path d="M11.64 4.09475C11.6402 4.18551 11.6134 4.27426 11.5631 4.3498C11.5128 4.42533 11.4412 4.48423 11.3574 4.51907C11.2736 4.55391 11.1814 4.5631 11.0923 4.54549C11.0033 4.52788 10.9215 4.48426 10.8573 4.42014C10.7931 4.35602 10.7493 4.27429 10.7315 4.1853C10.7138 4.0963 10.7228 4.00403 10.7575 3.92017C10.7922 3.83631 10.851 3.76463 10.9264 3.7142C11.0019 3.66376 11.0906 3.63684 11.1814 3.63684C11.3029 3.63684 11.4194 3.68506 11.5054 3.77091C11.5914 3.85676 11.6398 3.97324 11.64 4.09475Z" fill="#828282"/>
<path d="M13.4291 4.09475C13.4293 4.18554 13.4025 4.27432 13.3521 4.34987C13.3018 4.42542 13.2301 4.48433 13.1463 4.51915C13.0624 4.55396 12.9702 4.56311 12.8811 4.54544C12.7921 4.52776 12.7103 4.48406 12.6461 4.41987C12.5819 4.35567 12.5382 4.27387 12.5205 4.18482C12.5028 4.09578 12.512 4.00348 12.5468 3.91963C12.5816 3.83579 12.6405 3.76416 12.7161 3.71382C12.7916 3.66348 12.8804 3.63669 12.9712 3.63684C13.0926 3.63684 13.2091 3.68508 13.295 3.77096C13.3809 3.85683 13.4291 3.97331 13.4291 4.09475Z" fill="#828282"/>
<path d="M15.2162 4.09475C15.2164 4.18554 15.1896 4.27432 15.1392 4.34987C15.0889 4.42542 15.0172 4.48433 14.9334 4.51915C14.8496 4.55396 14.7573 4.56311 14.6682 4.54544C14.5792 4.52776 14.4974 4.48406 14.4332 4.41987C14.369 4.35567 14.3253 4.27387 14.3076 4.18482C14.2899 4.09578 14.2991 4.00348 14.3339 3.91963C14.3687 3.83579 14.4276 3.76416 14.5032 3.71382C14.5787 3.66348 14.6675 3.63669 14.7583 3.63684C14.8797 3.63684 14.9962 3.68508 15.0821 3.77096C15.168 3.85683 15.2162 3.97331 15.2162 4.09475Z" fill="#828282"/>
<path d="M0.916402 23.757C0.916555 23.8478 0.889757 23.9366 0.839415 24.0121C0.789073 24.0877 0.717445 24.1466 0.633599 24.1814C0.549754 24.2162 0.457468 24.2253 0.368419 24.2077C0.27937 24.19 0.197561 24.1463 0.133366 24.0821C0.0691711 24.0179 0.0254701 23.9361 0.00779633 23.8471C-0.00987744 23.758 -0.000716591 23.6657 0.0340965 23.5819C0.0689095 23.498 0.127812 23.4264 0.203361 23.3761C0.27891 23.3257 0.367694 23.2989 0.45848 23.2991C0.579862 23.2993 0.696228 23.3476 0.782059 23.4334C0.867889 23.5192 0.916197 23.6356 0.916402 23.757Z" fill="#828282"/>
<path d="M2.70392 23.757C2.70392 23.8476 2.67706 23.9361 2.62674 24.0114C2.57643 24.0867 2.5049 24.1454 2.42123 24.18C2.33756 24.2147 2.2455 24.2238 2.15667 24.2061C2.06785 24.1884 1.98625 24.1448 1.92221 24.0808C1.85817 24.0167 1.81455 23.9351 1.79689 23.8463C1.77922 23.7575 1.78828 23.6654 1.82294 23.5818C1.8576 23.4981 1.91629 23.4266 1.9916 23.3762C2.0669 23.3259 2.15543 23.2991 2.246 23.2991C2.36738 23.2993 2.48373 23.3476 2.56956 23.4334C2.65539 23.5192 2.70371 23.6356 2.70392 23.757Z" fill="#828282"/>
<path d="M4.49158 23.757C4.49174 23.8478 4.46496 23.9366 4.41462 24.0121C4.36427 24.0877 4.29265 24.1466 4.2088 24.1814C4.12495 24.2162 4.03267 24.2253 3.94362 24.2077C3.85457 24.19 3.77276 24.1463 3.70857 24.0821C3.64437 24.0179 3.60067 23.9361 3.583 23.8471C3.56532 23.758 3.57446 23.6657 3.60928 23.5819C3.64409 23.498 3.70301 23.4264 3.77856 23.3761C3.85411 23.3257 3.94289 23.2989 4.03368 23.2991C4.15506 23.2993 4.27141 23.3476 4.35724 23.4334C4.44307 23.5192 4.49138 23.6356 4.49158 23.757Z" fill="#828282"/>
<path d="M6.27869 23.757C6.27885 23.8478 6.25207 23.9366 6.20172 24.0121C6.15138 24.0877 6.07975 24.1466 5.99591 24.1814C5.91206 24.2162 5.81976 24.2253 5.73071 24.2077C5.64166 24.19 5.55987 24.1463 5.49568 24.0821C5.43148 24.0179 5.38778 23.9361 5.37011 23.8471C5.35243 23.758 5.36157 23.6657 5.39639 23.5819C5.4312 23.498 5.49012 23.4264 5.56567 23.3761C5.64122 23.3257 5.73 23.2989 5.82079 23.2991C5.94217 23.2993 6.05852 23.3476 6.14435 23.4334C6.23018 23.5192 6.27849 23.6356 6.27869 23.757Z" fill="#828282"/>
<path d="M8.07011 23.757C8.07011 23.8476 8.04325 23.9361 7.99293 24.0114C7.94262 24.0867 7.87111 24.1454 7.78744 24.18C7.70377 24.2147 7.61169 24.2238 7.52287 24.2061C7.43404 24.1884 7.35244 24.1448 7.2884 24.0808C7.22436 24.0167 7.18077 23.9351 7.1631 23.8463C7.14543 23.7575 7.15449 23.6654 7.18915 23.5818C7.22381 23.4981 7.28249 23.4266 7.35779 23.3762C7.43309 23.3259 7.52164 23.2991 7.61221 23.2991C7.73359 23.2993 7.84994 23.3476 7.93577 23.4334C8.0216 23.5192 8.06991 23.6356 8.07011 23.757Z" fill="#828282"/>
<path d="M9.85488 23.757C9.85503 23.8477 9.82826 23.9365 9.77795 24.012C9.72764 24.0876 9.65607 24.1465 9.57227 24.1813C9.48847 24.2161 9.39621 24.2253 9.30718 24.2077C9.21815 24.1901 9.13635 24.1465 9.07213 24.0824C9.0079 24.0183 8.96413 23.9365 8.94637 23.8475C8.92861 23.7585 8.93765 23.6663 8.97235 23.5824C9.00704 23.4985 9.06584 23.4269 9.14129 23.3764C9.21674 23.326 9.30545 23.2991 9.3962 23.2991C9.51765 23.2993 9.63407 23.3476 9.72002 23.4334C9.80598 23.5192 9.85447 23.6355 9.85488 23.757Z" fill="#828282"/>
<path d="M11.64 23.757C11.6402 23.8477 11.6134 23.9365 11.5631 24.012C11.5128 24.0876 11.4412 24.1465 11.3574 24.1813C11.2736 24.2161 11.1814 24.2253 11.0923 24.2077C11.0033 24.1901 10.9215 24.1465 10.8573 24.0824C10.7931 24.0183 10.7493 23.9365 10.7315 23.8475C10.7138 23.7585 10.7228 23.6663 10.7575 23.5824C10.7922 23.4985 10.851 23.4269 10.9264 23.3764C11.0019 23.326 11.0906 23.2991 11.1814 23.2991C11.3028 23.2993 11.4192 23.3476 11.5052 23.4334C11.5911 23.5192 11.6396 23.6355 11.64 23.757Z" fill="#828282"/>
<path d="M13.4291 23.757C13.4293 23.8478 13.4025 23.9366 13.3521 24.0121C13.3018 24.0877 13.2301 24.1466 13.1463 24.1814C13.0624 24.2162 12.9702 24.2253 12.8811 24.2077C12.7921 24.19 12.7103 24.1463 12.6461 24.0821C12.5819 24.0179 12.5382 23.9361 12.5205 23.8471C12.5028 23.758 12.512 23.6657 12.5468 23.5819C12.5816 23.498 12.6405 23.4264 12.7161 23.3761C12.7916 23.3257 12.8804 23.2989 12.9712 23.2991C13.0926 23.2993 13.2089 23.3476 13.2948 23.4334C13.3806 23.5192 13.4289 23.6356 13.4291 23.757Z" fill="#828282"/>
<path d="M15.2162 23.757C15.2164 23.8478 15.1896 23.9366 15.1392 24.0121C15.0889 24.0877 15.0172 24.1466 14.9334 24.1814C14.8496 24.2162 14.7573 24.2253 14.6682 24.2077C14.5792 24.19 14.4974 24.1463 14.4332 24.0821C14.369 24.0179 14.3253 23.9361 14.3076 23.8471C14.2899 23.758 14.2991 23.6657 14.3339 23.5819C14.3687 23.498 14.4276 23.4264 14.5032 23.3761C14.5787 23.3257 14.6675 23.2989 14.7583 23.2991C14.8797 23.2993 14.996 23.3476 15.0819 23.4334C15.1677 23.5192 15.216 23.6356 15.2162 23.757Z" fill="#828282"/>
<path d="M17.0043 23.757C17.0044 23.8477 16.9777 23.9365 16.9274 24.012C16.8771 24.0876 16.8055 24.1465 16.7217 24.1813C16.6379 24.2161 16.5456 24.2253 16.4566 24.2077C16.3676 24.1901 16.2858 24.1465 16.2215 24.0824C16.1573 24.0183 16.1135 23.9365 16.0958 23.8475C16.078 23.7585 16.0871 23.6663 16.1218 23.5824C16.1565 23.4985 16.2152 23.4269 16.2907 23.3764C16.3661 23.326 16.4548 23.2991 16.5456 23.2991C16.6671 23.2991 16.7837 23.3473 16.8697 23.4331C16.9557 23.519 17.0041 23.6355 17.0043 23.757Z" fill="#828282"/>
<path d="M18.7914 23.757C18.7915 23.8478 18.7648 23.9366 18.7144 24.0121C18.6641 24.0877 18.5924 24.1466 18.5086 24.1814C18.4248 24.2162 18.3325 24.2253 18.2434 24.2077C18.1544 24.19 18.0726 24.1463 18.0084 24.0821C17.9442 24.0179 17.9005 23.9361 17.8828 23.8471C17.8651 23.758 17.8743 23.6657 17.9091 23.5819C17.9439 23.498 18.0028 23.4264 18.0784 23.3761C18.1539 23.3257 18.2427 23.2989 18.3335 23.2991C18.4549 23.2993 18.5712 23.3476 18.657 23.4334C18.7429 23.5192 18.7912 23.6356 18.7914 23.757Z" fill="#828282"/>
<path d="M20.5785 23.757C20.5787 23.8478 20.5519 23.9366 20.5015 24.0121C20.4512 24.0877 20.3796 24.1466 20.2957 24.1814C20.2119 24.2162 20.1196 24.2253 20.0305 24.2077C19.9415 24.19 19.8597 24.1463 19.7955 24.0821C19.7313 24.0179 19.6876 23.9361 19.6699 23.8471C19.6522 23.758 19.6614 23.6657 19.6962 23.5819C19.731 23.498 19.7899 23.4264 19.8655 23.3761C19.941 23.3257 20.0298 23.2989 20.1206 23.2991C20.242 23.2993 20.3583 23.3476 20.4442 23.4334C20.53 23.5192 20.5783 23.6356 20.5785 23.757Z" fill="#828282"/>
<path d="M0.916403 21.9696C0.916556 22.0604 0.889781 22.1491 0.839473 22.2247C0.789165 22.3002 0.717571 22.3591 0.633771 22.394C0.549971 22.4288 0.457732 22.438 0.368704 22.4204C0.279677 22.4028 0.197878 22.3591 0.133652 22.295C0.0694254 22.2309 0.0256537 22.1492 0.00789219 22.0602C-0.00986933 21.9712 -0.000823772 21.8789 0.0338702 21.7951C0.0685642 21.7112 0.127346 21.6395 0.202794 21.5891C0.278241 21.5386 0.366951 21.5117 0.457704 21.5117C0.579221 21.5117 0.695778 21.5599 0.781776 21.6458C0.867774 21.7316 0.916197 21.8481 0.916403 21.9696Z" fill="#828282"/>
<path d="M0.916402 20.1822C0.916402 20.2729 0.889495 20.3616 0.839094 20.437C0.788693 20.5125 0.717054 20.5713 0.63324 20.606C0.549426 20.6407 0.457207 20.6498 0.36823 20.6321C0.279254 20.6144 0.197515 20.5707 0.133367 20.5065C0.0692185 20.4424 0.0255334 20.3607 0.00783492 20.2717C-0.00986361 20.1827 -0.000771329 20.0905 0.0339456 20.0067C0.0686625 19.9228 0.127438 19.8512 0.202869 19.8008C0.2783 19.7504 0.366984 19.7235 0.457704 19.7235C0.517939 19.7235 0.57759 19.7354 0.63324 19.7584C0.688891 19.7815 0.739467 19.8153 0.782059 19.8579C0.824652 19.9004 0.85843 19.951 0.881481 20.0067C0.904532 20.0623 0.916402 20.122 0.916402 20.1822Z" fill="#828282"/>
<path d="M0.916402 18.3948C0.916402 18.4856 0.889495 18.5742 0.839094 18.6497C0.788693 18.7251 0.717054 18.7839 0.63324 18.8186C0.549426 18.8533 0.457207 18.8624 0.36823 18.8447C0.279254 18.827 0.197515 18.7833 0.133367 18.7192C0.0692185 18.655 0.0255334 18.5733 0.00783492 18.4843C-0.00986361 18.3954 -0.000771329 18.3031 0.0339456 18.2193C0.0686625 18.1355 0.127438 18.0639 0.202869 18.0135C0.2783 17.9631 0.366984 17.9362 0.457704 17.9362C0.579355 17.9362 0.696039 17.9845 0.782059 18.0705C0.86808 18.1565 0.916402 18.2732 0.916402 18.3948Z" fill="#828282"/>
<path d="M0.916402 16.6074C0.916402 16.6981 0.889495 16.7868 0.839094 16.8622C0.788693 16.9376 0.717054 16.9964 0.63324 17.0311C0.549426 17.0659 0.457207 17.0749 0.36823 17.0572C0.279254 17.0395 0.197515 16.9959 0.133367 16.9317C0.0692185 16.8676 0.0255334 16.7858 0.00783492 16.6969C-0.00986361 16.6079 -0.000771329 16.5156 0.0339456 16.4318C0.0686625 16.348 0.127438 16.2764 0.202869 16.226C0.2783 16.1756 0.366984 16.1487 0.457704 16.1487C0.579355 16.1487 0.696039 16.197 0.782059 16.283C0.86808 16.3691 0.916402 16.4857 0.916402 16.6074Z" fill="#828282"/>
<path d="M0.916402 14.82C0.916402 14.9107 0.889495 14.9994 0.839094 15.0749C0.788693 15.1503 0.717054 15.2091 0.63324 15.2438C0.549426 15.2785 0.457207 15.2876 0.36823 15.2699C0.279254 15.2522 0.197515 15.2085 0.133367 15.1444C0.0692185 15.0802 0.0255334 14.9985 0.00783492 14.9095C-0.00986361 14.8205 -0.000771329 14.7283 0.0339456 14.6445C0.0686625 14.5607 0.127438 14.489 0.202869 14.4386C0.2783 14.3882 0.366984 14.3613 0.457704 14.3613C0.579355 14.3613 0.696039 14.4097 0.782059 14.4957C0.86808 14.5817 0.916402 14.6984 0.916402 14.82Z" fill="#828282"/>
<path d="M0.916402 13.0327C0.916402 13.1234 0.889495 13.2121 0.839094 13.2875C0.788693 13.3629 0.717054 13.4217 0.63324 13.4564C0.549426 13.4911 0.457207 13.5002 0.36823 13.4825C0.279254 13.4648 0.197515 13.4211 0.133367 13.357C0.0692185 13.2929 0.0255334 13.2111 0.00783492 13.1221C-0.00986361 13.0332 -0.000771329 12.9409 0.0339456 12.8571C0.0686625 12.7733 0.127438 12.7017 0.202869 12.6513C0.2783 12.6009 0.366984 12.574 0.457704 12.574C0.579355 12.574 0.696039 12.6223 0.782059 12.7083C0.86808 12.7943 0.916402 12.911 0.916402 13.0327Z" fill="#828282"/>
<path d="M0.916403 11.2444C0.916556 11.3352 0.889781 11.4239 0.839473 11.4995C0.789165 11.575 0.717571 11.6339 0.633771 11.6687C0.549971 11.7036 0.457732 11.7128 0.368704 11.6952C0.279677 11.6775 0.197878 11.6339 0.133652 11.5698C0.0694254 11.5057 0.0256537 11.424 0.00789219 11.335C-0.00986933 11.246 -0.000823772 11.1537 0.0338702 11.0698C0.0685642 10.986 0.127346 10.9143 0.202794 10.8639C0.278241 10.8134 0.366951 10.7865 0.457704 10.7865C0.579221 10.7865 0.695778 10.8347 0.781776 10.9206C0.867774 11.0064 0.916197 11.1229 0.916403 11.2444Z" fill="#828282"/>
<path d="M0.916403 9.45706C0.916556 9.54781 0.889781 9.63657 0.839473 9.7121C0.789165 9.78763 0.717571 9.84655 0.633771 9.88138C0.549971 9.91622 0.457732 9.92541 0.368704 9.9078C0.279677 9.89019 0.197878 9.84656 0.133652 9.78245C0.0694254 9.71833 0.0256537 9.6366 0.00789219 9.5476C-0.00986933 9.4586 -0.000823772 9.36634 0.0338702 9.28248C0.0685642 9.19862 0.127346 9.12694 0.202794 9.0765C0.278241 9.02607 0.366951 8.99915 0.457704 8.99915C0.579158 8.99935 0.695594 9.04763 0.781548 9.13344C0.867502 9.21925 0.915993 9.3356 0.916403 9.45706Z" fill="#828282"/>
<path d="M0.916403 7.66958C0.916556 7.76033 0.889781 7.84909 0.839473 7.92463C0.789165 8.00016 0.717571 8.05907 0.633771 8.09391C0.549971 8.12874 0.457732 8.13793 0.368704 8.12032C0.279677 8.10271 0.197878 8.05909 0.133652 7.99497C0.0694254 7.93085 0.0256537 7.84912 0.00789219 7.76013C-0.00986933 7.67113 -0.000823772 7.57887 0.0338702 7.49501C0.0685642 7.41115 0.127346 7.33946 0.202794 7.28903C0.278241 7.23859 0.366951 7.21167 0.457704 7.21167C0.579221 7.21167 0.695778 7.25989 0.781776 7.34575C0.867774 7.4316 0.916197 7.54807 0.916403 7.66958Z" fill="#828282"/>
<path d="M0.916403 5.88222C0.916556 5.97297 0.889781 6.06173 0.839473 6.13726C0.789165 6.2128 0.717571 6.27171 0.633771 6.30655C0.549971 6.34138 0.457732 6.35058 0.368704 6.33297C0.279677 6.31536 0.197878 6.27173 0.133652 6.20762C0.0694254 6.1435 0.0256537 6.06177 0.00789219 5.97277C-0.00986933 5.88378 -0.000823772 5.79151 0.0338702 5.70765C0.0685642 5.62379 0.127346 5.55211 0.202794 5.50167C0.278241 5.45124 0.366951 5.42432 0.457704 5.42432C0.579158 5.42452 0.695594 5.4728 0.781548 5.55861C0.867502 5.64442 0.915993 5.76077 0.916403 5.88222Z" fill="#828282"/>
<path d="M20.5789 21.9696C20.5789 22.0602 20.5521 22.1487 20.5017 22.224C20.4514 22.2993 20.3799 22.358 20.2962 22.3927C20.2126 22.4273 20.1205 22.4364 20.0317 22.4187C19.9428 22.4011 19.8612 22.3575 19.7972 22.2934C19.7332 22.2294 19.6896 22.1478 19.6719 22.059C19.6542 21.9701 19.6633 21.8781 19.6979 21.7944C19.7326 21.7107 19.7913 21.6392 19.8666 21.5889C19.9419 21.5386 20.0304 21.5117 20.121 21.5117C20.2424 21.5117 20.3589 21.56 20.4448 21.6458C20.5307 21.7317 20.5789 21.8482 20.5789 21.9696Z" fill="#828282"/>
<path d="M20.5789 20.1822C20.5787 20.2727 20.5518 20.3612 20.5014 20.4364C20.451 20.5116 20.3794 20.5702 20.2957 20.6047C20.212 20.6392 20.12 20.6482 20.0312 20.6304C19.9424 20.6127 19.8609 20.569 19.7969 20.5049C19.733 20.4409 19.6894 20.3593 19.6718 20.2705C19.6542 20.1817 19.6633 20.0896 19.698 20.006C19.7327 19.9224 19.7914 19.8509 19.8667 19.8006C19.942 19.7503 20.0305 19.7235 20.121 19.7235C20.1812 19.7235 20.2408 19.7354 20.2964 19.7584C20.352 19.7815 20.4025 19.8153 20.4451 19.8579C20.4876 19.9005 20.5213 19.9511 20.5443 20.0067C20.5672 20.0624 20.579 20.122 20.5789 20.1822Z" fill="#828282"/>
<path d="M20.5789 18.3948C20.5787 18.4854 20.5518 18.5738 20.5014 18.649C20.451 18.7242 20.3794 18.7828 20.2957 18.8173C20.212 18.8519 20.12 18.8608 20.0312 18.8431C19.9424 18.8253 19.8609 18.7817 19.7969 18.7176C19.733 18.6535 19.6894 18.5719 19.6718 18.4831C19.6542 18.3943 19.6633 18.3023 19.698 18.2187C19.7327 18.135 19.7914 18.0636 19.8667 18.0133C19.942 17.963 20.0305 17.9362 20.121 17.9362C20.1812 17.9362 20.2408 17.948 20.2964 17.9711C20.352 17.9941 20.4025 18.0279 20.4451 18.0705C20.4876 18.1132 20.5213 18.1637 20.5443 18.2194C20.5672 18.275 20.579 18.3346 20.5789 18.3948Z" fill="#828282"/>
<path d="M20.5789 16.6074C20.5787 16.6979 20.5518 16.7864 20.5014 16.8616C20.451 16.9368 20.3794 16.9953 20.2957 17.0299C20.212 17.0644 20.12 17.0734 20.0312 17.0556C19.9424 17.0379 19.8609 16.9942 19.7969 16.9301C19.733 16.866 19.6894 16.7844 19.6718 16.6956C19.6542 16.6068 19.6633 16.5148 19.698 16.4312C19.7327 16.3476 19.7914 16.2761 19.8667 16.2258C19.942 16.1755 20.0305 16.1487 20.121 16.1487C20.1812 16.1487 20.2408 16.1606 20.2964 16.1836C20.352 16.2067 20.4025 16.2405 20.4451 16.2831C20.4876 16.3257 20.5213 16.3763 20.5443 16.4319C20.5672 16.4875 20.579 16.5472 20.5789 16.6074Z" fill="#828282"/>
<path d="M20.5789 14.82C20.5787 14.9106 20.5518 14.999 20.5014 15.0742C20.451 15.1494 20.3794 15.208 20.2957 15.2425C20.212 15.2771 20.12 15.286 20.0312 15.2683C19.9424 15.2505 19.8609 15.2068 19.7969 15.1428C19.733 15.0787 19.6894 14.9971 19.6718 14.9083C19.6542 14.8195 19.6633 14.7275 19.698 14.6438C19.7327 14.5602 19.7914 14.4887 19.8667 14.4384C19.942 14.3882 20.0305 14.3613 20.121 14.3613C20.1812 14.3613 20.2408 14.3732 20.2964 14.3963C20.352 14.4193 20.4025 14.4531 20.4451 14.4957C20.4876 14.5383 20.5213 14.5889 20.5443 14.6445C20.5672 14.7002 20.579 14.7598 20.5789 14.82Z" fill="#828282"/>
<path d="M20.5789 13.0327C20.5787 13.1232 20.5518 13.2116 20.5014 13.2868C20.451 13.362 20.3794 13.4206 20.2957 13.4552C20.212 13.4897 20.12 13.4987 20.0312 13.4809C19.9424 13.4631 19.8609 13.4195 19.7969 13.3554C19.733 13.2913 19.6894 13.2097 19.6718 13.1209C19.6542 13.0321 19.6633 12.9401 19.698 12.8565C19.7327 12.7728 19.7914 12.7014 19.8667 12.6511C19.942 12.6008 20.0305 12.574 20.121 12.574C20.1812 12.574 20.2408 12.5858 20.2964 12.6089C20.352 12.632 20.4025 12.6658 20.4451 12.7084C20.4876 12.751 20.5213 12.8015 20.5443 12.8572C20.5672 12.9128 20.579 12.9725 20.5789 13.0327Z" fill="#828282"/>
<path d="M20.5789 11.2444C20.5789 11.335 20.5521 11.4235 20.5017 11.4988C20.4514 11.5741 20.3799 11.6328 20.2962 11.6675C20.2126 11.7021 20.1205 11.7112 20.0317 11.6935C19.9428 11.6759 19.8612 11.6322 19.7972 11.5682C19.7332 11.5042 19.6896 11.4226 19.6719 11.3337C19.6542 11.2449 19.6633 11.1529 19.6979 11.0692C19.7326 10.9855 19.7913 10.914 19.8666 10.8637C19.9419 10.8133 20.0304 10.7865 20.121 10.7865C20.2424 10.7865 20.3589 10.8347 20.4448 10.9206C20.5307 11.0065 20.5789 11.123 20.5789 11.2444Z" fill="#828282"/>
<path d="M20.5789 9.45706C20.5789 9.54762 20.5521 9.63615 20.5017 9.71146C20.4514 9.78676 20.3799 9.84546 20.2962 9.88011C20.2126 9.91477 20.1205 9.92384 20.0317 9.90617C19.9428 9.8885 19.8612 9.84489 19.7972 9.78085C19.7332 9.71681 19.6896 9.63522 19.6719 9.54639C19.6542 9.45756 19.6633 9.3655 19.6979 9.28182C19.7326 9.19815 19.7913 9.12664 19.8666 9.07632C19.9419 9.02601 20.0304 8.99915 20.121 8.99915C20.2424 8.99935 20.3587 9.04766 20.4446 9.13349C20.5304 9.21932 20.5787 9.33568 20.5789 9.45706Z" fill="#828282"/>
</g>
<defs>
<clipPath id="clip0_3288_460">
<rect width="26" height="24.2149" fill="white"/>
</clipPath>
</defs>
</svg>
