<svg width="16" height="12" viewBox="0 0 16 12" fill="none" xmlns="http://www.w3.org/2000/svg">
<path d="M15.0054 1.39214C14.4803 1.62149 13.9241 1.77187 13.3549 1.8384C13.9523 1.48758 14.4016 0.93124 14.6187 0.273336C14.0527 0.602832 13.4353 0.834911 12.7924 0.95989C12.5216 0.676305 12.196 0.45085 11.8352 0.29728C11.4745 0.14371 11.0862 0.0652441 10.6942 0.0666695C9.10668 0.0666695 7.81975 1.33469 7.81975 2.89695C7.81975 3.11833 7.84497 3.33481 7.89401 3.54147C6.75529 3.48731 5.64037 3.19638 4.62038 2.68723C3.6004 2.17808 2.69775 1.4619 1.97003 0.584387C1.7149 1.01482 1.5808 1.50618 1.58191 2.00653C1.5824 2.47449 1.69949 2.93494 1.92259 3.34629C2.1457 3.75764 2.46778 4.10691 2.85975 4.36253C2.40402 4.34782 1.95813 4.22615 1.5581 4.00735V4.04238C1.5581 5.41408 2.54939 6.5581 3.86295 6.81871C3.61608 6.88422 3.36176 6.91742 3.10634 6.91749C2.92069 6.91749 2.74065 6.89998 2.56481 6.86495C2.75262 7.43095 3.11202 7.92442 3.59311 8.27683C4.0742 8.62923 4.65308 8.82307 5.24937 8.83144C4.2266 9.61926 2.97101 10.0448 1.67999 10.0413C1.44741 10.0413 1.21902 10.0273 0.994141 10.0021C2.31208 10.8362 3.84025 11.278 5.39999 11.2757C10.6872 11.2757 13.5777 6.96233 13.5777 3.22201L13.5679 2.85562C14.1317 2.45887 14.6188 1.96299 15.0054 1.39214Z" fill="#244D4D"/>
</svg>
