<svg width="16" height="16" viewBox="0 0 16 16" fill="none" xmlns="http://www.w3.org/2000/svg">
<path d="M13.1332 2.79322C12.4612 2.11619 11.6613 1.57952 10.7801 1.21442C9.89879 0.849329 8.95373 0.663094 7.99984 0.666551C6.72462 0.667796 5.47211 1.00406 4.36774 1.64168C3.26337 2.2793 2.34591 3.19588 1.70723 4.29963C1.06856 5.40339 0.731088 6.65558 0.72862 7.9308C0.726152 9.20601 1.05877 10.4595 1.69317 11.5657L0.666504 15.3332L4.5165 14.3249C5.57961 14.9163 6.77415 15.2315 7.99067 15.2416C9.92453 15.2416 11.7801 14.4778 13.1536 13.1164C14.527 11.755 15.3071 9.90617 15.324 7.97238C15.3176 7.00741 15.1207 6.0532 14.7448 5.16446C14.3688 4.27571 13.8212 3.4699 13.1332 2.79322ZM7.99984 13.9857C6.91605 13.9864 5.85209 13.6951 4.91984 13.1424L4.69984 13.0049L2.41734 13.6099L3.02234 11.3824L2.87567 11.1532C2.09582 9.89433 1.80477 8.39313 2.05766 6.93401C2.31055 5.47489 3.08981 4.1592 4.24783 3.23618C5.40585 2.31315 6.86219 1.8469 8.34096 1.92576C9.81973 2.00462 11.2182 2.6231 12.2715 3.66405C13.4228 4.7899 14.0819 6.32557 14.1048 7.93572C14.0903 9.54531 13.4407 11.0841 12.2974 12.2171C11.1541 13.3501 9.6095 13.9858 7.99984 13.9857ZM11.309 9.45739C11.1257 9.36572 10.2365 8.92572 10.0715 8.87072C9.9065 8.81572 9.77817 8.77905 9.659 8.96239C9.47967 9.20813 9.28687 9.44377 9.0815 9.66822C8.98067 9.79655 8.87067 9.80572 8.68734 9.66822C7.64209 9.25515 6.77122 8.49435 6.2215 7.51405C6.029 7.19322 6.40484 7.21155 6.75317 6.52405C6.77888 6.47449 6.79231 6.41947 6.79231 6.36363C6.79231 6.3078 6.77888 6.25278 6.75317 6.20322C6.75317 6.11155 6.34067 5.21322 6.194 4.85572C6.04734 4.49822 5.90067 4.55322 5.7815 4.54405H5.424C5.33138 4.54547 5.24012 4.56665 5.15634 4.60617C5.07256 4.64569 4.99818 4.70264 4.93817 4.77322C4.73249 4.97321 4.57206 5.21497 4.4677 5.4822C4.36334 5.74943 4.31747 6.03593 4.33317 6.32238C4.39065 7.00812 4.6489 7.66173 5.07567 8.20155C5.85686 9.371 6.9274 10.3184 8.18317 10.9516C8.84177 11.336 9.6072 11.4968 10.3648 11.4099C10.6171 11.3598 10.8561 11.2572 11.0661 11.1088C11.2761 10.9603 11.4526 10.7693 11.584 10.5482C11.7057 10.2784 11.744 9.97832 11.694 9.68655C11.6115 9.59488 11.4923 9.54905 11.309 9.45739Z" fill="#1E4339"/>
</svg>
