<svg width="140" height="70" viewBox="0 0 140 70" fill="none" xmlns="http://www.w3.org/2000/svg">
<rect width="140" height="70" fill="white"/>
<line x1="61.5" y1="23" x2="61.5" y2="47" stroke="#C1C1C1" stroke-dasharray="2 2"/>
<path d="M96.258 29.41L93.346 21.71L90.49 29.41L87.886 22.2H86.556L90.406 32.49L93.346 24.874L96.286 32.49L100.136 22.2H98.806L96.258 29.41ZM99.6482 28.78C99.6482 29.424 99.7929 30.0027 100.082 30.516C100.381 31.02 100.782 31.4167 101.286 31.706C101.79 31.9953 102.355 32.14 102.98 32.14C103.615 32.14 104.18 31.9953 104.674 31.706C105.178 31.4167 105.575 31.02 105.864 30.516C106.163 30.0027 106.312 29.424 106.312 28.78C106.312 28.1267 106.163 27.548 105.864 27.044C105.575 26.54 105.178 26.1433 104.674 25.854C104.18 25.5647 103.615 25.42 102.98 25.42C102.355 25.42 101.79 25.5647 101.286 25.854C100.782 26.1433 100.381 26.54 100.082 27.044C99.7929 27.548 99.6482 28.1267 99.6482 28.78ZM100.782 28.78C100.782 28.332 100.876 27.9353 101.062 27.59C101.258 27.2353 101.52 26.96 101.846 26.764C102.182 26.568 102.56 26.47 102.98 26.47C103.4 26.47 103.774 26.568 104.1 26.764C104.436 26.96 104.698 27.2353 104.884 27.59C105.08 27.9353 105.178 28.332 105.178 28.78C105.178 29.228 105.08 29.6247 104.884 29.97C104.698 30.3153 104.436 30.5907 104.1 30.796C103.774 30.992 103.4 31.09 102.98 31.09C102.56 31.09 102.182 30.992 101.846 30.796C101.52 30.5907 101.258 30.3153 101.062 29.97C100.876 29.6247 100.782 29.228 100.782 28.78ZM108.971 25.56H107.851V32H108.971V25.56ZM110.917 26.792L111.533 25.868C111.365 25.6907 111.178 25.574 110.973 25.518C110.777 25.4527 110.562 25.42 110.329 25.42C110.03 25.42 109.736 25.5367 109.447 25.77C109.157 26.0033 108.919 26.3207 108.733 26.722C108.555 27.114 108.467 27.5667 108.467 28.08H108.971C108.971 27.772 108.999 27.4967 109.055 27.254C109.12 27.0113 109.232 26.82 109.391 26.68C109.549 26.54 109.769 26.47 110.049 26.47C110.235 26.47 110.389 26.498 110.511 26.554C110.632 26.6007 110.767 26.68 110.917 26.792ZM117.48 21.08V32H118.6V21.08H117.48ZM112.09 28.78C112.09 29.4707 112.234 30.068 112.524 30.572C112.813 31.076 113.2 31.4633 113.686 31.734C114.171 32.0047 114.703 32.14 115.282 32.14C115.823 32.14 116.294 32.0047 116.696 31.734C117.097 31.4633 117.41 31.076 117.634 30.572C117.867 30.068 117.984 29.4707 117.984 28.78C117.984 28.08 117.867 27.4827 117.634 26.988C117.41 26.484 117.097 26.0967 116.696 25.826C116.294 25.5553 115.823 25.42 115.282 25.42C114.703 25.42 114.171 25.5553 113.686 25.826C113.2 26.0967 112.813 26.484 112.524 26.988C112.234 27.4827 112.09 28.08 112.09 28.78ZM113.224 28.78C113.224 28.2853 113.322 27.8653 113.518 27.52C113.723 27.1747 113.994 26.9133 114.33 26.736C114.666 26.5587 115.03 26.47 115.422 26.47C115.748 26.47 116.07 26.5587 116.388 26.736C116.705 26.9133 116.966 27.1747 117.172 27.52C117.377 27.8653 117.48 28.2853 117.48 28.78C117.48 29.2747 117.377 29.6947 117.172 30.04C116.966 30.3853 116.705 30.6467 116.388 30.824C116.07 31.0013 115.748 31.09 115.422 31.09C115.03 31.09 114.666 31.0013 114.33 30.824C113.994 30.6467 113.723 30.3853 113.518 30.04C113.322 29.6947 113.224 29.2747 113.224 28.78ZM78.4389 42.82H80.0209C80.6089 42.82 81.1175 42.736 81.5469 42.568C81.9855 42.4 82.3262 42.1527 82.5689 41.826C82.8115 41.4993 82.9329 41.1073 82.9329 40.65C82.9329 40.09 82.8115 39.6327 82.5689 39.278C82.3262 38.914 81.9855 38.6433 81.5469 38.466C81.1175 38.2887 80.6089 38.2 80.0209 38.2H77.5009V48H80.1609C80.7955 48 81.3602 47.8973 81.8549 47.692C82.3589 47.4773 82.7555 47.16 83.0449 46.74C83.3435 46.3107 83.4929 45.774 83.4929 45.13C83.4929 44.682 83.4089 44.2947 83.2409 43.968C83.0729 43.6413 82.8349 43.3753 82.5269 43.17C82.2282 42.9553 81.8782 42.7967 81.4769 42.694C81.0755 42.5913 80.6369 42.54 80.1609 42.54H78.4389V43.198H80.1609C80.4782 43.198 80.7675 43.24 81.0289 43.324C81.2902 43.3987 81.5142 43.5153 81.7009 43.674C81.8969 43.8327 82.0462 44.0287 82.1489 44.262C82.2515 44.4953 82.3029 44.7613 82.3029 45.06C82.3029 45.4613 82.2095 45.802 82.0229 46.082C81.8455 46.362 81.5935 46.5767 81.2669 46.726C80.9495 46.8753 80.5809 46.95 80.1609 46.95H78.6909V39.25H80.0209C80.5155 39.25 80.9262 39.3807 81.2529 39.642C81.5795 39.894 81.7429 40.2533 81.7429 40.72C81.7429 41.028 81.6682 41.2893 81.5189 41.504C81.3695 41.7187 81.1642 41.882 80.9029 41.994C80.6415 42.106 80.3475 42.162 80.0209 42.162H78.4389V42.82ZM86.3575 41.56H85.2375V48H86.3575V41.56ZM88.3035 42.792L88.9195 41.868C88.7515 41.6907 88.5648 41.574 88.3595 41.518C88.1635 41.4527 87.9488 41.42 87.7155 41.42C87.4168 41.42 87.1228 41.5367 86.8335 41.77C86.5442 42.0033 86.3062 42.3207 86.1195 42.722C85.9422 43.114 85.8535 43.5667 85.8535 44.08H86.3575C86.3575 43.772 86.3855 43.4967 86.4415 43.254C86.5068 43.0113 86.6188 42.82 86.7775 42.68C86.9362 42.54 87.1555 42.47 87.4355 42.47C87.6222 42.47 87.7762 42.498 87.8975 42.554C88.0188 42.6007 88.1542 42.68 88.3035 42.792ZM89.2713 44.78C89.2713 45.424 89.4159 46.0027 89.7052 46.516C90.0039 47.02 90.4053 47.4167 90.9093 47.706C91.4133 47.9953 91.9779 48.14 92.6033 48.14C93.2379 48.14 93.8026 47.9953 94.2973 47.706C94.8013 47.4167 95.1979 47.02 95.4873 46.516C95.7859 46.0027 95.9353 45.424 95.9353 44.78C95.9353 44.1267 95.7859 43.548 95.4873 43.044C95.1979 42.54 94.8013 42.1433 94.2973 41.854C93.8026 41.5647 93.2379 41.42 92.6033 41.42C91.9779 41.42 91.4133 41.5647 90.9093 41.854C90.4053 42.1433 90.0039 42.54 89.7052 43.044C89.4159 43.548 89.2713 44.1267 89.2713 44.78ZM90.4053 44.78C90.4053 44.332 90.4986 43.9353 90.6853 43.59C90.8813 43.2353 91.1426 42.96 91.4693 42.764C91.8053 42.568 92.1833 42.47 92.6033 42.47C93.0233 42.47 93.3966 42.568 93.7233 42.764C94.0593 42.96 94.3206 43.2353 94.5073 43.59C94.7033 43.9353 94.8013 44.332 94.8013 44.78C94.8013 45.228 94.7033 45.6247 94.5073 45.97C94.3206 46.3153 94.0593 46.5907 93.7233 46.796C93.3966 46.992 93.0233 47.09 92.6033 47.09C92.1833 47.09 91.8053 46.992 91.4693 46.796C91.1426 46.5907 90.8813 46.3153 90.6853 45.97C90.4986 45.6247 90.4053 45.228 90.4053 44.78ZM97.9778 44.78C97.9778 44.332 98.0712 43.9353 98.2578 43.59C98.4538 43.2353 98.7152 42.96 99.0418 42.764C99.3778 42.568 99.7558 42.47 100.176 42.47C100.521 42.47 100.843 42.526 101.142 42.638C101.45 42.7407 101.716 42.8807 101.94 43.058C102.164 43.2353 102.322 43.4313 102.416 43.646V42.246C102.192 41.9847 101.87 41.784 101.45 41.644C101.039 41.4947 100.614 41.42 100.176 41.42C99.5505 41.42 98.9858 41.5647 98.4818 41.854C97.9778 42.1433 97.5765 42.54 97.2778 43.044C96.9885 43.548 96.8438 44.1267 96.8438 44.78C96.8438 45.424 96.9885 46.0027 97.2778 46.516C97.5765 47.02 97.9778 47.4167 98.4818 47.706C98.9858 47.9953 99.5505 48.14 100.176 48.14C100.614 48.14 101.039 48.07 101.45 47.93C101.87 47.7807 102.192 47.5753 102.416 47.314V45.914C102.322 46.1193 102.164 46.3153 101.94 46.502C101.716 46.6793 101.45 46.824 101.142 46.936C100.843 47.0387 100.521 47.09 100.176 47.09C99.7558 47.09 99.3778 46.992 99.0418 46.796C98.7152 46.5907 98.4538 46.3153 98.2578 45.97C98.0712 45.6247 97.9778 45.228 97.9778 44.78ZM105.279 37.08H104.159V48H105.279V37.08ZM108.289 44.08V48H109.409V43.94C109.409 43.38 109.316 42.9133 109.129 42.54C108.952 42.1667 108.695 41.8867 108.359 41.7C108.033 41.5133 107.645 41.42 107.197 41.42C106.749 41.42 106.353 41.5367 106.007 41.77C105.671 42.0033 105.405 42.3207 105.209 42.722C105.013 43.114 104.915 43.5667 104.915 44.08H105.279C105.279 43.772 105.345 43.4967 105.475 43.254C105.615 43.0113 105.807 42.82 106.049 42.68C106.301 42.54 106.591 42.47 106.917 42.47C107.375 42.47 107.715 42.6053 107.939 42.876C108.173 43.1467 108.289 43.548 108.289 44.08ZM112.635 45.48V41.56H111.515V45.62C111.515 46.3853 111.716 46.9967 112.117 47.454C112.518 47.9113 113.055 48.14 113.727 48.14C114.156 48.14 114.53 48.0467 114.847 47.86C115.164 47.664 115.43 47.3747 115.645 46.992V48H116.765V41.56H115.645V45.48C115.645 45.7973 115.575 46.0773 115.435 46.32C115.304 46.5627 115.113 46.754 114.861 46.894C114.618 47.0247 114.334 47.09 114.007 47.09C113.559 47.09 113.218 46.95 112.985 46.67C112.752 46.39 112.635 45.9933 112.635 45.48ZM119.99 41.56H118.87V48H119.99V41.56ZM121.936 42.792L122.552 41.868C122.384 41.6907 122.198 41.574 121.992 41.518C121.796 41.4527 121.582 41.42 121.348 41.42C121.05 41.42 120.756 41.5367 120.466 41.77C120.177 42.0033 119.939 42.3207 119.752 42.722C119.575 43.114 119.486 43.5667 119.486 44.08H119.99C119.99 43.772 120.018 43.4967 120.074 43.254C120.14 43.0113 120.252 42.82 120.41 42.68C120.569 42.54 120.788 42.47 121.068 42.47C121.255 42.47 121.409 42.498 121.53 42.554C121.652 42.6007 121.787 42.68 121.936 42.792ZM125.956 48.14C126.647 48.14 127.244 48.0047 127.748 47.734C128.261 47.454 128.686 47.0433 129.022 46.502L128.112 45.928C127.879 46.32 127.594 46.614 127.258 46.81C126.922 46.9967 126.535 47.09 126.096 47.09C125.657 47.09 125.284 46.9967 124.976 46.81C124.668 46.6233 124.435 46.3527 124.276 45.998C124.117 45.6433 124.038 45.214 124.038 44.71C124.047 44.2153 124.131 43.8 124.29 43.464C124.458 43.1187 124.691 42.8573 124.99 42.68C125.298 42.4933 125.667 42.4 126.096 42.4C126.46 42.4 126.777 42.4793 127.048 42.638C127.319 42.7967 127.529 43.016 127.678 43.296C127.837 43.576 127.916 43.9073 127.916 44.29C127.916 44.3553 127.902 44.4393 127.874 44.542C127.846 44.6353 127.818 44.7053 127.79 44.752L128.238 44.108H123.618V45.06H129.12C129.12 45.0413 129.12 44.9993 129.12 44.934C129.129 44.8593 129.134 44.7893 129.134 44.724C129.134 44.0427 129.013 43.4547 128.77 42.96C128.527 42.4653 128.177 42.0873 127.72 41.826C127.272 41.5553 126.731 41.42 126.096 41.42C125.461 41.42 124.901 41.56 124.416 41.84C123.94 42.12 123.567 42.512 123.296 43.016C123.035 43.52 122.904 44.108 122.904 44.78C122.904 45.4427 123.03 46.026 123.282 46.53C123.543 47.034 123.903 47.4307 124.36 47.72C124.827 48 125.359 48.14 125.956 48.14Z" fill="#232323"/>
<g clip-path="url(#clip0_3346_809)">
<path d="M35.1973 19.5927V22.5556H24.3982L21.3984 19.5927H35.1973Z" fill="#0074FF"/>
<path d="M39.9969 24.3334H36.3972C36.0789 24.3334 35.7737 24.2085 35.5487 23.9863C35.3237 23.764 35.1973 23.4625 35.1973 23.1482V19.5927L39.9969 24.3334Z" fill="#CCD3EB"/>
<path d="M39.998 24.3334V48.6297C39.998 49.1012 39.8084 49.5534 39.4708 49.8868C39.1333 50.2202 38.6755 50.4075 38.1982 50.4075H17.7999C17.3225 50.4075 16.8647 50.2202 16.5272 49.8868C16.1896 49.5534 16 49.1012 16 48.6297V21.3704C16 20.8989 16.1896 20.4467 16.5272 20.1133C16.8647 19.7799 17.3225 19.5927 17.7999 19.5927H21.9215C22.1299 19.5949 22.3341 19.6508 22.514 19.7547C22.6938 19.8586 22.8432 20.007 22.9474 20.1852L24.0473 21.963C24.1516 22.1414 24.3011 22.2899 24.4812 22.3938C24.6613 22.4977 24.8657 22.5535 25.0742 22.5556H35.1944V23.1482C35.1944 23.4625 35.3208 23.764 35.5458 23.9863C35.7709 24.2085 36.0761 24.3334 36.3943 24.3334H39.998Z" fill="#F5F7FF"/>
<path d="M11.7995 26.1111H26.1983C26.5165 26.1111 26.8218 26.2359 27.0468 26.4582C27.2718 26.6805 27.3982 26.9819 27.3982 27.2963V33.2222C27.3982 33.5365 27.2718 33.838 27.0468 34.0602C26.8218 34.2825 26.5165 34.4074 26.1983 34.4074H11.7995C11.4813 34.4074 11.1761 34.2825 10.9511 34.0602C10.726 33.838 10.5996 33.5365 10.5996 33.2222V27.2963C10.5996 26.9819 10.726 26.6805 10.9511 26.4582C11.1761 26.2359 11.4813 26.1111 11.7995 26.1111Z" fill="#0074FF"/>
<path d="M13.6003 32.6297H13.0003C12.8412 32.6297 12.6886 32.5672 12.5761 32.4561C12.4636 32.3449 12.4004 32.1942 12.4004 32.0371V28.4815C12.4004 28.3243 12.4636 28.1736 12.5761 28.0625C12.6886 27.9513 12.8412 27.8889 13.0003 27.8889H13.6003C14.2368 27.8889 14.8472 28.1386 15.2972 28.5832C15.7473 29.0277 16.0001 29.6306 16.0001 30.2593C16.0001 30.8879 15.7473 31.4909 15.2972 31.9354C14.8472 32.3799 14.2368 32.6297 13.6003 32.6297ZM13.6003 29.0741V31.4445C13.9185 31.4445 14.2237 31.3196 14.4488 31.0973C14.6738 30.8751 14.8002 30.5736 14.8002 30.2593C14.8002 29.945 14.6738 29.6435 14.4488 29.4212C14.2237 29.199 13.9185 29.0741 13.6003 29.0741Z" fill="#F5F7FF"/>
<path d="M45.3973 44.4815L42.9975 46.8518L39.9978 43.8889L38.1979 45.6667L36.998 38.5555L44.1974 39.7407L42.3976 41.5185L45.3973 44.4815Z" fill="#0074FF"/>
<path d="M15.3996 36.7778C15.3996 36.935 15.4629 37.0857 15.5754 37.1968C15.6879 37.3079 15.8405 37.3704 15.9996 37.3704C16.1587 37.3704 16.3113 37.3079 16.4238 37.1968C16.5363 37.0857 16.5995 36.935 16.5995 36.7778V35H26.1987C26.6761 35 27.1339 34.8127 27.4714 34.4793C27.809 34.1459 27.9986 33.6937 27.9986 33.2222V27.2963C27.9986 26.8248 27.809 26.3726 27.4714 26.0392C27.1339 25.7058 26.6761 25.5185 26.1987 25.5185H16.5995V21.3704C16.5995 21.0561 16.726 20.7546 16.951 20.5323C17.176 20.3101 17.4812 20.1852 17.7994 20.1852H21.9211C22.0242 20.1862 22.1253 20.2135 22.2146 20.2644C22.3039 20.3152 22.3785 20.388 22.4311 20.4756L23.531 22.2533C23.6868 22.5224 23.9112 22.7466 24.1818 22.9035C24.4525 23.0605 24.76 23.1448 25.0738 23.1482H34.594C34.594 23.6197 34.7837 24.0718 35.1212 24.4052C35.4587 24.7386 35.9165 24.9259 36.3939 24.9259H39.3936V36.7778C39.3936 36.935 39.4568 37.0857 39.5694 37.1968C39.6819 37.3079 39.8345 37.3704 39.9936 37.3704C40.1527 37.3704 40.3053 37.3079 40.4178 37.1968C40.5303 37.0857 40.5935 36.935 40.5935 36.7778V24.3334C40.5941 24.2554 40.5792 24.1782 40.5495 24.106C40.5198 24.0338 40.476 23.9681 40.4205 23.9126L35.6209 19.1719C35.5648 19.1168 35.4981 19.0733 35.4248 19.0438C35.3516 19.0143 35.2731 18.9994 35.194 19H17.7954C17.159 19 16.5486 19.2497 16.0985 19.6943C15.6485 20.1388 15.3956 20.7417 15.3956 21.3704V25.5185H11.7959C11.3186 25.5185 10.8608 25.7058 10.5232 26.0392C10.1857 26.3726 9.99609 26.8248 9.99609 27.2963V33.2222C9.99609 33.6937 10.1857 34.1459 10.5232 34.4793C10.8608 34.8127 11.3186 35 11.7959 35H15.3956L15.3996 36.7778ZM35.7979 23.1482V21.0208L38.5517 23.7408H36.3979C36.2388 23.7408 36.0862 23.6783 35.9737 23.5672C35.8612 23.456 35.7979 23.3053 35.7979 23.1482ZM34.598 21.963H25.0778C24.9746 21.9621 24.8733 21.9349 24.7838 21.884C24.6942 21.8332 24.6195 21.7603 24.5669 21.6726L23.667 20.1852H34.603L34.598 21.963ZM11.2 33.2222V27.2963C11.2 27.1391 11.2632 26.9884 11.3757 26.8773C11.4882 26.7662 11.6408 26.7037 11.7999 26.7037H26.1987C26.3579 26.7037 26.5105 26.7662 26.623 26.8773C26.7355 26.9884 26.7987 27.1391 26.7987 27.2963V33.2222C26.7987 33.3794 26.7355 33.5301 26.623 33.6413C26.5105 33.7524 26.3579 33.8148 26.1987 33.8148H11.7999C11.6408 33.8148 11.4882 33.7524 11.3757 33.6413C11.2632 33.5301 11.2 33.3794 11.2 33.2222Z" fill="#033C59"/>
<path d="M16.0003 38.5555C15.8412 38.5555 15.6886 38.618 15.5761 38.7291C15.4636 38.8402 15.4004 38.991 15.4004 39.1481V40.3333C15.4004 40.4905 15.4636 40.6412 15.5761 40.7523C15.6886 40.8635 15.8412 40.9259 16.0003 40.9259C16.1595 40.9259 16.3121 40.8635 16.4246 40.7523C16.5371 40.6412 16.6003 40.4905 16.6003 40.3333V39.1481C16.6003 38.991 16.5371 38.8402 16.4246 38.7291C16.3121 38.618 16.1595 38.5555 16.0003 38.5555Z" fill="#033C59"/>
<path d="M21.3988 21.3704C21.2801 21.3704 21.1641 21.4051 21.0655 21.4702C20.9668 21.5353 20.8899 21.6279 20.8445 21.7362C20.7991 21.8445 20.7872 21.9636 20.8104 22.0786C20.8335 22.1935 20.8906 22.2991 20.9746 22.382C21.0585 22.4648 21.1653 22.5213 21.2817 22.5442C21.3981 22.567 21.5187 22.5553 21.6284 22.5104C21.738 22.4656 21.8317 22.3896 21.8976 22.2922C21.9635 22.1947 21.9987 22.0802 21.9987 21.963C21.9987 21.8058 21.9355 21.6551 21.823 21.5439C21.7105 21.4328 21.5579 21.3704 21.3988 21.3704Z" fill="#033C59"/>
<path d="M45.8239 44.0607L43.2442 41.5185L44.624 40.1614C44.7032 40.0843 44.759 39.987 44.7854 39.8803C44.8118 39.7736 44.8076 39.6618 44.7734 39.5573C44.7392 39.4528 44.6762 39.3598 44.5916 39.2886C44.507 39.2174 44.404 39.1708 44.2941 39.154L37.0947 37.9689C36.9998 37.9516 36.9022 37.9573 36.81 37.9853C36.7178 38.0133 36.6338 38.0628 36.5651 38.1297C36.4965 38.1965 36.4451 38.2788 36.4154 38.3694C36.3858 38.46 36.3787 38.5564 36.3947 38.6503L37.5946 45.7614C37.6116 45.87 37.6587 45.9717 37.7308 46.0553C37.8029 46.1389 37.8971 46.2011 38.0029 46.2349C38.1087 46.2687 38.2219 46.2728 38.3299 46.2468C38.4379 46.2207 38.5364 46.1655 38.6145 46.0874L39.3945 45.317V48.6296C39.3945 48.9439 39.2681 49.2454 39.043 49.4676C38.818 49.6899 38.5128 49.8148 38.1946 49.8148H17.7963C17.4781 49.8148 17.1728 49.6899 16.9478 49.4676C16.7228 49.2454 16.5964 48.9439 16.5964 48.6296V42.7037C16.5964 42.5465 16.5332 42.3958 16.4207 42.2846C16.3081 42.1735 16.1556 42.1111 15.9964 42.1111C15.8373 42.1111 15.6847 42.1735 15.5722 42.2846C15.4597 42.3958 15.3965 42.5465 15.3965 42.7037V48.6296C15.3965 49.2583 15.6493 49.8612 16.0994 50.3057C16.5494 50.7502 17.1598 51 17.7963 51H38.1946C38.8311 51 39.4414 50.7502 39.8915 50.3057C40.3415 49.8612 40.5944 49.2583 40.5944 48.6296V45.317L42.5682 47.2726C42.624 47.3282 42.6904 47.3725 42.7636 47.4026C42.8368 47.4328 42.9154 47.4483 42.9947 47.4483C43.074 47.4483 43.1525 47.4328 43.2257 47.4026C43.2989 47.3725 43.3653 47.3282 43.4211 47.2726L45.8209 44.9022C45.8772 44.8471 45.9218 44.7816 45.9523 44.7093C45.9827 44.6371 45.9984 44.5597 45.9984 44.4815C45.9984 44.4032 45.9827 44.3258 45.9523 44.2536C45.9218 44.1813 45.8772 44.1158 45.8209 44.0607H45.8239ZM42.9972 46.0163L40.4244 43.4681C40.3682 43.4131 40.3016 43.3695 40.2283 43.3401C40.155 43.3106 40.0765 43.2957 39.9974 43.2963C39.6854 43.2963 39.6495 43.395 38.5975 44.434L37.7276 39.2785L42.9472 40.1377L41.9693 41.0977C41.913 41.1528 41.8684 41.2184 41.8379 41.2906C41.8075 41.3628 41.7918 41.4403 41.7918 41.5185C41.7918 41.5967 41.8075 41.6742 41.8379 41.7464C41.8684 41.8186 41.913 41.8841 41.9693 41.9392L44.549 44.4815L42.9972 46.0163Z" fill="#033C59"/>
<path d="M34.5985 40.9259H26.7992C26.6401 40.9259 26.4875 40.8635 26.3749 40.7523C26.2624 40.6412 26.1992 40.4905 26.1992 40.3333C26.1992 40.1761 26.2624 40.0254 26.3749 39.9143C26.4875 39.8032 26.6401 39.7407 26.7992 39.7407H34.5985C34.7576 39.7407 34.9102 39.8032 35.0228 39.9143C35.1353 40.0254 35.1985 40.1761 35.1985 40.3333C35.1985 40.4905 35.1353 40.6412 35.0228 40.7523C34.9102 40.8635 34.7576 40.9259 34.5985 40.9259Z" fill="#96A1C3"/>
<path d="M34.5977 43.8889H21.3988C21.2397 43.8889 21.0871 43.8265 20.9746 43.7153C20.862 43.6042 20.7988 43.4535 20.7988 43.2963C20.7988 43.1392 20.862 42.9884 20.9746 42.8773C21.0871 42.7662 21.2397 42.7037 21.3988 42.7037H34.5977C34.7568 42.7037 34.9094 42.7662 35.0219 42.8773C35.1344 42.9884 35.1976 43.1392 35.1976 43.2963C35.1976 43.4535 35.1344 43.6042 35.0219 43.7153C34.9094 43.8265 34.7568 43.8889 34.5977 43.8889Z" fill="#96A1C3"/>
<path d="M32.1979 46.8518H21.3988C21.2397 46.8518 21.0871 46.7894 20.9746 46.6782C20.862 46.5671 20.7988 46.4164 20.7988 46.2592C20.7988 46.1021 20.862 45.9513 20.9746 45.8402C21.0871 45.7291 21.2397 45.6666 21.3988 45.6666H32.1979C32.357 45.6666 32.5096 45.7291 32.6221 45.8402C32.7346 45.9513 32.7978 46.1021 32.7978 46.2592C32.7978 46.4164 32.7346 46.5671 32.6221 46.6782C32.5096 46.7894 32.357 46.8518 32.1979 46.8518Z" fill="#96A1C3"/>
<path d="M18.9991 32.6297C18.5217 32.6297 18.0639 32.4424 17.7264 32.109C17.3888 31.7756 17.1992 31.3234 17.1992 30.8519V29.6667C17.1992 29.1952 17.3888 28.743 17.7264 28.4096C18.0639 28.0762 18.5217 27.8889 18.9991 27.8889C19.4764 27.8889 19.9342 28.0762 20.2718 28.4096C20.6093 28.743 20.7989 29.1952 20.7989 29.6667V30.8519C20.7989 31.3234 20.6093 31.7756 20.2718 32.109C19.9342 32.4424 19.4764 32.6297 18.9991 32.6297ZM18.9991 29.0741C18.84 29.0741 18.6874 29.1365 18.5748 29.2477C18.4623 29.3588 18.3991 29.5095 18.3991 29.6667V30.8519C18.3991 31.009 18.4623 31.1598 18.5748 31.2709C18.6874 31.382 18.84 31.4445 18.9991 31.4445C19.1582 31.4445 19.3108 31.382 19.4233 31.2709C19.5358 31.1598 19.599 31.009 19.599 30.8519V29.6667C19.599 29.5095 19.5358 29.3588 19.4233 29.2477C19.3108 29.1365 19.1582 29.0741 18.9991 29.0741Z" fill="#F5F7FF"/>
<path d="M24.9978 32.6297H24.3978C23.7614 32.6297 23.151 32.3799 22.7009 31.9354C22.2509 31.4909 21.998 30.8879 21.998 30.2593C21.998 29.6306 22.2509 29.0277 22.7009 28.5832C23.151 28.1386 23.7614 27.8889 24.3978 27.8889H24.9978C25.1569 27.8889 25.3095 27.9513 25.422 28.0625C25.5345 28.1736 25.5977 28.3243 25.5977 28.4815C25.5977 28.6387 25.5345 28.7894 25.422 28.9005C25.3095 29.0117 25.1569 29.0741 24.9978 29.0741H24.3978C24.0796 29.0741 23.7744 29.199 23.5494 29.4212C23.3244 29.6435 23.1979 29.945 23.1979 30.2593C23.1979 30.5736 23.3244 30.8751 23.5494 31.0973C23.7744 31.3196 24.0796 31.4445 24.3978 31.4445H24.9978C25.1569 31.4445 25.3095 31.5069 25.422 31.618C25.5345 31.7292 25.5977 31.8799 25.5977 32.0371C25.5977 32.1942 25.5345 32.3449 25.422 32.4561C25.3095 32.5672 25.1569 32.6297 24.9978 32.6297Z" fill="#F5F7FF"/>
<path d="M23.9007 40.6593L23.2008 39.6222L22.5008 40.6593C22.4368 40.761 22.3431 40.8411 22.2321 40.8892C22.121 40.9373 21.9979 40.951 21.8788 40.9285C21.7597 40.9061 21.6503 40.8485 21.565 40.7634C21.4797 40.6783 21.4225 40.5697 21.4009 40.4519L20.801 37.4889C20.7772 37.3716 20.7892 37.25 20.8354 37.1395C20.8817 37.029 20.9601 36.9345 21.0607 36.868C21.1613 36.8015 21.2797 36.7659 21.4007 36.7659C21.5218 36.7658 21.6402 36.8012 21.7409 36.8677C21.8078 36.9116 21.8652 36.9681 21.9098 37.0341C21.9544 37.1 21.9854 37.174 22.0009 37.2519L22.3188 38.8163L22.7188 38.2237C22.7735 38.1422 22.8478 38.0754 22.9351 38.0291C23.0223 37.9829 23.1198 37.9587 23.2188 37.9587C23.3178 37.9587 23.4152 37.9829 23.5025 38.0291C23.5897 38.0754 23.664 38.1422 23.7187 38.2237L24.1187 38.8163L24.4127 37.2519C24.4471 37.0973 24.5416 36.9623 24.6758 36.8758C24.81 36.7893 24.9732 36.7583 25.1303 36.7893C25.2874 36.8203 25.4259 36.911 25.5161 37.0418C25.6063 37.1726 25.6409 37.3331 25.6126 37.4889L25.0126 40.4519C24.991 40.5697 24.9338 40.6783 24.8485 40.7634C24.7632 40.8485 24.6538 40.9061 24.5347 40.9285C24.4157 40.951 24.2925 40.9373 24.1814 40.8892C24.0704 40.8411 23.9767 40.761 23.9127 40.6593H23.9007Z" fill="#96A1C3"/>
</g>
<defs>
<clipPath id="clip0_3346_809">
<rect width="36" height="32" fill="white" transform="translate(10 19)"/>
</clipPath>
</defs>
</svg>
